{"title":"Spice.World.1997.WEBRip.480p.x264.AAC-VYTO [P2PDL]","uid":13135120,"size":534330889,"categoryP":"video","categoryS":"movies","magnet":"?xt=urn:btih:e5014c7829c0bcebee4089842f1a7ee11f54bfec&amp;dn=Spice.World.1997.WEBRip.480p.x264.AAC-VYTO+%5BP2PDL%5D&amp;tr=udp%3A%2F%2Ftracker.leechers-paradise.org%3A6969&amp;tr=udp%3A%2F%2Fzer0day.ch%3A1337&amp;tr=udp%3A%2F%2Fopen.demonii.com%3A1337&amp;tr=udp%3A%2F%2Ftracker.coppersurfer.tk%3A6969&amp;tr=udp%3A%2F%2Fexodus.desync.com%3A6969","seeders":0,"leechers":3,"uploader":"VYTOP2PDL","files":7,"time":1451893620,"description":"____    ____ ____    ____ .___________.  ______   \r\n     /   /      /   / |           | /  __    \r\n    /   /      /   /  `---|  |----`|  |  |  | \r\n        /     _    _/       |  |     |  |  |  | \r\n       /        |  |         |  |     |  `--'  | \r\n    __/         |__|         |__|      ______/  \r\n                                                  \r\nPresenting Small Encodes with quality for years!\r\n                                                                                                   \r\n                                                                                                   \r\n\r\nSpice.World.1997.WEBRip.480p.x264.AAC-VYTO\r\n\r\n\r\nGenre: Comedy, Family, Music \nhttp://www.imdb.com/title/tt0120185/\r\n\r\n\r\nFormat                                   : MPEG-4\r\nFile size                                : 501 MiB\r\nDuration                                 : 1h 32mn\r\nOverall bit rate                         : 757 Kbps\r\n\r\nVideo\r\nFormat                                   : AVC\r\nBit rate                                 : 690 Kbps\r\nWidth                                    : 720 pixels\r\nHeight                                   : 400 pixels\r\nDisplay aspect ratio                     : 16:9\r\nFrame rate mode                          : Constant\r\nFrame rate                               : 23.976 fps\r\nBit depth                                : 8 bits\r\nStream size                              : 457 MiB (91%)\r\nWriting library                          : x264\r\n\r\nAudio\r\nFormat                                   : AAC\r\nBit rate mode                            : Variable\r\nBit rate                                 : 64.0 Kbps\r\nChannel(s)                               : 2 channels\r\nChannel positions                        : Front: L R\r\nSampling rate                            : 48.0 KHz\r\nStream size                              : 42.4 MiB (8%)\r\nLanguage                                 : English\r\n\r\nSubtitle                                 : Yes (English)\r\n\r\nScreen Shots: (Click to view)\r\n \nhttp://ititli.com/cB \nhttp://ititli.com/cN \nhttp://ititli.com/cP \nhttp://ititli.com/cf \nhttp://ititli.com/cu \nhttp://ititli.com/cv \nhttp://ititli.com/cR \nhttp://ititli.com/cy \nhttp://ititli.com/c3\r\n\r\n----------------------------------------------------------------------------------------------------\r\n\r\n\r\nEncoder Notes: Looking For Early Access To Anything You Can Provide WEBDL, DVDScr, DVDR, BluRay,\r\nDirect Audio, Music Releases and Seedboxes. If You Got anything to offer please contact us.\r\n\r\nSupport us by donating BC - 1FgwdzPsd1y25Gea8wP1qni35uGCtmkRCD\r\n\r\nSend some love!\r\nFind us and join us!","torrent":{"xt":"urn:btih:e5014c7829c0bcebee4089842f1a7ee11f54bfec","amp;dn":"Spice.World.1997.WEBRip.480p.x264.AAC-VYTO+%5BP2PDL%5D","amp;tr":["udp%3A%2F%2Ftracker.leechers-paradise.org%3A6969","udp%3A%2F%2Fzer0day.ch%3A1337","udp%3A%2F%2Fopen.demonii.com%3A1337","udp%3A%2F%2Ftracker.coppersurfer.tk%3A6969","udp%3A%2F%2Fexodus.desync.com%3A6969"],"infoHash":"e5014c7829c0bcebee4089842f1a7ee11f54bfec","infoHashBuffer":{"type":"Buffer","data":[229,1,76,120,41,192,188,235,238,64,137,132,47,26,126,225,31,84,191,236]},"announce":[],"urlList":[]}}